<?xml version="1.0" encoding="UTF-8" standalone="no"?>
<!DOCTYPE svg PUBLIC "-//W3C//DTD SVG 1.0//EN" "http://www.w3.org/TR/2001/PR-SVG-20010719/DTD/svg10.dtd">
<svg width="34cm" height="26cm" viewBox="159 139 663 513" xmlns="http://www.w3.org/2000/svg" xmlns:xlink="http://www.w3.org/1999/xlink">
  <g>
    <rect style="fill: #ffffff" x="160" y="140" width="88.5" height="36"/>
    <rect style="fill: none; fill-opacity:0; stroke-width: 2; stroke: #000000" x="160" y="140" width="88.5" height="36"/>
    <text font-size="12.8" style="fill: #000000;text-anchor:middle;font-family:sans-serif;font-style:normal;font-weight:normal" x="204.25" y="161.9">
      <tspan x="204.25" y="161.9">view: View</tspan>
    </text>
    <line style="fill: none; fill-opacity:0; stroke-width: 1; stroke: #000000" x1="170" y1="164.9" x2="238.5" y2="164.9"/>
  </g>
  <text font-size="12.8" style="fill: #000000;text-anchor:start;font-family:sans-serif;font-style:normal;font-weight:normal" x="204.25" y="158">
    <tspan x="204.25" y="158"></tspan>
  </text>
  <g>
    <rect style="fill: #ffffff" x="380" y="140" width="152.1" height="36"/>
    <rect style="fill: none; fill-opacity:0; stroke-width: 2; stroke: #000000" x="380" y="140" width="152.1" height="36"/>
    <text font-size="12.8" style="fill: #000000;text-anchor:middle;font-family:sans-serif;font-style:normal;font-weight:normal" x="456.05" y="161.9">
      <tspan x="456.05" y="161.9">presenter: Presenter</tspan>
    </text>
    <line style="fill: none; fill-opacity:0; stroke-width: 1; stroke: #000000" x1="390" y1="164.9" x2="522.1" y2="164.9"/>
  </g>
  <g>
    <rect style="fill: #ffffff" x="714.216" y="144" width="106.75" height="36"/>
    <rect style="fill: none; fill-opacity:0; stroke-width: 2; stroke: #000000" x="714.216" y="144" width="106.75" height="36"/>
    <text font-size="12.8" style="fill: #000000;text-anchor:middle;font-family:sans-serif;font-style:normal;font-weight:normal" x="767.591" y="165.9">
      <tspan x="767.591" y="165.9">model: Model</tspan>
    </text>
    <line style="fill: none; fill-opacity:0; stroke-width: 1; stroke: #000000" x1="724.216" y1="168.9" x2="810.966" y2="168.9"/>
  </g>
  <g>
    <line style="fill: none; fill-opacity:0; stroke-width: 1; stroke-dasharray: 8; stroke: #000000" x1="204.25" y1="176" x2="204.25" y2="280"/>
    <line style="fill: none; fill-opacity:0; stroke-width: 1; stroke-dasharray: 8; stroke: #000000" x1="204.25" y1="360" x2="204.25" y2="384.75"/>
    <rect style="fill: #ffffff" x="197.25" y="280" width="14" height="80"/>
    <rect style="fill: none; fill-opacity:0; stroke-width: 2; stroke: #000000" x="197.25" y="280" width="14" height="80"/>
  </g>
  <g>
    <line style="fill: none; fill-opacity:0; stroke-width: 1; stroke-dasharray: 8; stroke: #000000" x1="456.05" y1="176" x2="456.05" y2="280"/>
    <line style="fill: none; fill-opacity:0; stroke-width: 1; stroke-dasharray: 8; stroke: #000000" x1="456.05" y1="360" x2="456.05" y2="616"/>
    <rect style="fill: #ffffff" x="449.05" y="280" width="14" height="80"/>
    <rect style="fill: none; fill-opacity:0; stroke-width: 2; stroke: #000000" x="449.05" y="280" width="14" height="80"/>
  </g>
  <g>
    <line style="fill: none; fill-opacity:0; stroke-width: 2; stroke: #000000" x1="432.05" y1="290" x2="211.25" y2="290"/>
    <polygon style="fill: #000000" points="432.05,295 448.05,290 432.05,285 "/>
    <polygon style="fill: none; fill-opacity:0; stroke-width: 2; stroke: #000000" points="432.05,295 448.05,290 432.05,285 "/>
    <text font-size="12.7998" style="fill: #000000;text-anchor:middle;font-family:sans-serif;font-style:normal;font-weight:normal" x="330.15" y="300">LoadImagesFrom(path)</text>
  </g>
  <g>
    <line style="fill: none; fill-opacity:0; stroke-width: 2; stroke: #000000" x1="744" y1="290" x2="463.05" y2="290"/>
    <polygon style="fill: #000000" points="744,295 760,290 744,285 "/>
    <polygon style="fill: none; fill-opacity:0; stroke-width: 2; stroke: #000000" points="744,295 760,290 744,285 "/>
    <text font-size="12.7998" style="fill: #000000;text-anchor:middle;font-family:sans-serif;font-style:normal;font-weight:normal" x="612.024" y="300">LoadImagesFrom(path)</text>
  </g>
  <g>
    <line style="fill: none; fill-opacity:0; stroke-width: 1; stroke-dasharray: 8; stroke: #000000" x1="768" y1="184" x2="768" y2="280"/>
    <line style="fill: none; fill-opacity:0; stroke-width: 1; stroke-dasharray: 8; stroke: #000000" x1="768" y1="360" x2="768" y2="632"/>
    <rect style="fill: #ffffff" x="761" y="280" width="14" height="80"/>
    <rect style="fill: none; fill-opacity:0; stroke-width: 2; stroke: #000000" x="761" y="280" width="14" height="80"/>
  </g>
  <g>
    <line style="fill: none; fill-opacity:0; stroke-width: 2; stroke-dasharray: 8; stroke: #000000" x1="480.05" y1="310" x2="761" y2="310"/>
    <polygon style="fill: #000000" points="480.05,305 464.05,310 480.05,315 "/>
    <polygon style="fill: none; fill-opacity:0; stroke-width: 2; stroke: #000000" points="480.05,305 464.05,310 480.05,315 "/>
  </g>
  <g>
    <line style="fill: none; fill-opacity:0; stroke-width: 2; stroke-dasharray: 8; stroke: #000000" x1="228.25" y1="350" x2="449.05" y2="350"/>
    <polygon style="fill: #000000" points="228.25,345 212.25,350 228.25,355 "/>
    <polygon style="fill: none; fill-opacity:0; stroke-width: 2; stroke: #000000" points="228.25,345 212.25,350 228.25,355 "/>
  </g>
  <g>
    <line style="fill: none; fill-opacity:0; stroke-width: 2; stroke: #000000" x1="432.05" y1="470.799" x2="211.25" y2="470"/>
    <polygon style="fill: #000000" points="432.032,475.798 448.05,470.856 432.068,465.799 "/>
    <polygon style="fill: none; fill-opacity:0; stroke-width: 2; stroke: #000000" points="432.032,475.798 448.05,470.856 432.068,465.799 "/>
    <text font-size="12.7998" style="fill: #000000;text-anchor:middle;font-family:sans-serif;font-style:normal;font-weight:normal" x="330.15" y="480.43">LoadAndShowNextImage()</text>
  </g>
  <g>
    <line style="fill: none; fill-opacity:0; stroke-width: 1; stroke-dasharray: 8; stroke: #000000" x1="204.25" y1="360" x2="204.25" y2="460"/>
    <line style="fill: none; fill-opacity:0; stroke-width: 1; stroke-dasharray: 8; stroke: #000000" x1="204.25" y1="540" x2="204.25" y2="650"/>
    <rect style="fill: #ffffff" x="197.25" y="460" width="14" height="80"/>
    <rect style="fill: none; fill-opacity:0; stroke-width: 2; stroke: #000000" x="197.25" y="460" width="14" height="80"/>
  </g>
  <g>
    <line style="fill: none; fill-opacity:0; stroke-width: 1; stroke-dasharray: 8; stroke: #000000" x1="456.05" y1="360" x2="456.05" y2="460.86"/>
    <line style="fill: none; fill-opacity:0; stroke-width: 1; stroke-dasharray: 8; stroke: #000000" x1="456.05" y1="540.86" x2="456.05" y2="650.876"/>
    <rect style="fill: #ffffff" x="449.05" y="460.86" width="14" height="80"/>
    <rect style="fill: none; fill-opacity:0; stroke-width: 2; stroke: #000000" x="449.05" y="460.86" width="14" height="80"/>
  </g>
  <g>
    <line style="fill: none; fill-opacity:0; stroke-width: 1; stroke-dasharray: 8; stroke: #000000" x1="768" y1="360" x2="768" y2="460.86"/>
    <line style="fill: none; fill-opacity:0; stroke-width: 1; stroke-dasharray: 8; stroke: #000000" x1="768" y1="540.86" x2="768" y2="650"/>
    <rect style="fill: #ffffff" x="761" y="460.86" width="14" height="80"/>
    <rect style="fill: none; fill-opacity:0; stroke-width: 2; stroke: #000000" x="761" y="460.86" width="14" height="80"/>
  </g>
  <g>
    <line style="fill: none; fill-opacity:0; stroke-width: 2; stroke: #000000" x1="228.25" y1="320" x2="449.05" y2="320"/>
    <polygon style="fill: #000000" points="228.25,315 212.25,320 228.25,325 "/>
    <polygon style="fill: none; fill-opacity:0; stroke-width: 2; stroke: #000000" points="228.25,315 212.25,320 228.25,325 "/>
    <text font-size="12.7998" style="fill: #000000;text-anchor:middle;font-family:sans-serif;font-style:normal;font-weight:normal" x="330.15" y="330">showImage(path)</text>
  </g>
  <g>
    <line style="fill: none; fill-opacity:0; stroke-width: 2; stroke-dasharray: 8; stroke: #000000" x1="432.05" y1="340" x2="211.25" y2="340"/>
    <polygon style="fill: #000000" points="432.05,345 448.05,340 432.05,335 "/>
    <polygon style="fill: none; fill-opacity:0; stroke-width: 2; stroke: #000000" points="432.05,345 448.05,340 432.05,335 "/>
  </g>
  <g>
    <line style="fill: none; fill-opacity:0; stroke-width: 2; stroke: #000000" x1="744" y1="480.86" x2="463.05" y2="480.86"/>
    <polygon style="fill: #000000" points="744,485.86 760,480.86 744,475.86 "/>
    <polygon style="fill: none; fill-opacity:0; stroke-width: 2; stroke: #000000" points="744,485.86 760,480.86 744,475.86 "/>
    <text font-size="12.7998" style="fill: #000000;text-anchor:middle;font-family:sans-serif;font-style:normal;font-weight:normal" x="612.026" y="490.86">MoveToNextImage()</text>
  </g>
  <g>
    <line style="fill: none; fill-opacity:0; stroke-width: 2; stroke-dasharray: 8; stroke: #000000" x1="480.05" y1="500.86" x2="761" y2="500.86"/>
    <polygon style="fill: #000000" points="480.05,495.86 464.05,500.86 480.05,505.86 "/>
    <polygon style="fill: none; fill-opacity:0; stroke-width: 2; stroke: #000000" points="480.05,495.86 464.05,500.86 480.05,505.86 "/>
  </g>
  <g>
    <line style="fill: none; fill-opacity:0; stroke-width: 2; stroke: #000000" x1="228.25" y1="500.061" x2="449.05" y2="500.86"/>
    <polygon style="fill: #000000" points="228.268,495.062 212.25,500.004 228.232,505.061 "/>
    <polygon style="fill: none; fill-opacity:0; stroke-width: 2; stroke: #000000" points="228.268,495.062 212.25,500.004 228.232,505.061 "/>
    <text font-size="12.7998" style="fill: #000000;text-anchor:middle;font-family:sans-serif;font-style:normal;font-weight:normal" x="330.15" y="510.43">showImage(path)</text>
  </g>
  <g>
    <line style="fill: none; fill-opacity:0; stroke-width: 2; stroke-dasharray: 8; stroke: #000000" x1="432.05" y1="520.799" x2="211.25" y2="520"/>
    <polygon style="fill: #000000" points="432.032,525.798 448.05,520.856 432.068,515.799 "/>
    <polygon style="fill: none; fill-opacity:0; stroke-width: 2; stroke: #000000" points="432.032,525.798 448.05,520.856 432.068,515.799 "/>
  </g>
  <g>
    <line style="fill: none; fill-opacity:0; stroke-width: 2; stroke-dasharray: 8; stroke: #000000" x1="228.25" y1="540.061" x2="449.05" y2="540.86"/>
    <polygon style="fill: #000000" points="228.268,535.062 212.25,540.004 228.232,545.061 "/>
    <polygon style="fill: none; fill-opacity:0; stroke-width: 2; stroke: #000000" points="228.268,535.062 212.25,540.004 228.232,545.061 "/>
  </g>
</svg>
