<?xml version="1.0" encoding="UTF-8" standalone="no"?>
<!DOCTYPE svg PUBLIC "-//W3C//DTD SVG 1.0//EN" "http://www.w3.org/TR/2001/PR-SVG-20010719/DTD/svg10.dtd">
<svg width="22cm" height="8cm" viewBox="114 139 437 156" xmlns="http://www.w3.org/2000/svg" xmlns:xlink="http://www.w3.org/1999/xlink">
  <g>
    <ellipse style="fill: #ffffff" cx="140" cy="204" rx="6" ry="6"/>
    <ellipse style="fill: none; fill-opacity:0; stroke-width: 2; stroke: #000000" cx="140" cy="204" rx="6" ry="6"/>
    <line style="fill: none; fill-opacity:0; stroke-width: 2; stroke: #000000" x1="116" y1="216" x2="164" y2="216"/>
    <line style="fill: none; fill-opacity:0; stroke-width: 2; stroke: #000000" x1="140" y1="210" x2="140" y2="240"/>
    <line style="fill: none; fill-opacity:0; stroke-width: 2; stroke: #000000" x1="140" y1="240" x2="116" y2="266"/>
    <line style="fill: none; fill-opacity:0; stroke-width: 2; stroke: #000000" x1="140" y1="240" x2="164" y2="266"/>
    <text font-size="12.8" style="fill: #000000;text-anchor:middle;font-family:sans-serif;font-style:normal;font-weight:normal" x="140" y="289.9">
      <tspan x="140" y="289.9">User</tspan>
    </text>
  </g>
  <g>
    <ellipse style="fill: #ffffff" cx="421.3" cy="160.433" rx="61.3" ry="20.4333"/>
    <ellipse style="fill: none; fill-opacity:0; stroke-width: 2; stroke: #000000" cx="421.3" cy="160.433" rx="61.3" ry="20.4333"/>
    <text font-size="12.8" style="fill: #000000;text-anchor:middle;font-family:sans-serif;font-style:normal;font-weight:normal" x="421.3" y="164.333">
      <tspan x="421.3" y="164.333">View image</tspan>
    </text>
  </g>
  <g>
    <ellipse style="fill: #ffffff" cx="454.8" cy="252" rx="94.8" ry="32"/>
    <ellipse style="fill: none; fill-opacity:0; stroke-width: 2; stroke: #000000" cx="454.8" cy="252" rx="94.8" ry="32"/>
    <text font-size="12.8" style="fill: #000000;text-anchor:middle;font-family:sans-serif;font-style:normal;font-weight:normal" x="454.8" y="247.9">
      <tspan x="454.8" y="247.9">Browse folders</tspan>
      <tspan x="454.8" y="263.9">for images</tspan>
    </text>
  </g>
  <g>
    <line style="fill: none; fill-opacity:0; stroke-width: 2; stroke: #000000" x1="165" y1="240" x2="355.859" y2="162.123"/>
    <polyline style="fill: none; fill-opacity:0; stroke-width: 2; stroke: #000000" points="350.56,169.686 357.93,161.278 346.782,160.427 "/>
  </g>
  <g>
    <line style="fill: none; fill-opacity:0; stroke-width: 2; stroke: #000000" x1="165" y1="240" x2="354.525" y2="247.848"/>
    <polyline style="fill: none; fill-opacity:0; stroke-width: 2; stroke: #000000" points="346.561,252.522 356.759,247.94 346.974,242.531 "/>
  </g>
</svg>
